<?xml version="1.0" encoding="utf-8"?>
<!-- Generator: Adobe Illustrator 23.0.3, SVG Export Plug-In . SVG Version: 6.00 Build 0)  -->
<svg version="1.1" id="Layer_1" xmlns="http://www.w3.org/2000/svg" xmlns:xlink="http://www.w3.org/1999/xlink" x="0px" y="0px"
	 viewBox="0 0 14 14" style="enable-background:new 0 0 14 14;" xml:space="preserve">
<style type="text/css">
	.st0{clip-path:url(#SVGID_2_);fill-rule:evenodd;clip-rule:evenodd;fill:#152C53;}
</style>
<g>
	<defs>
		<rect id="SVGID_1_" y="0" width="14" height="14"/>
	</defs>
	<clipPath id="SVGID_2_">
		<use xlink:href="#SVGID_1_"  style="overflow:visible;"/>
	</clipPath>
	<path class="st0" d="M7,0c0.1,0,0.2,0,0.3,0.1c0.3,0.1,0.5,0.3,0.5,0.6l1.3,4h4C13.6,4.6,14,5,14,5.5c0,0.3-0.1,0.5-0.3,0.7
		l-3.3,2.5l1.2,4.1c0.1,0.5-0.1,1-0.6,1.1c-0.1,0-0.2,0-0.3,0c-0.2,0-0.4-0.1-0.5-0.2L7,11.4l-3.2,2.5C3.6,13.9,3.4,14,3.3,14
		c-0.3,0-0.5-0.1-0.7-0.3c-0.2-0.2-0.2-0.5-0.1-0.8l1.2-4.1L0.3,6.2C0,5.9-0.1,5.4,0.2,5c0.2-0.2,0.4-0.3,0.7-0.3h3.8l1.4-4.1
		C6.3,0.2,6.6,0,7,0"/>
</g>
</svg>
